<mxfile host="65bd71144e" modified="2021-03-10T12:50:43.437Z" agent="5.0 (Windows NT 10.0; Win64; x64) AppleWebKit/537.36 (KHTML, like Gecko) Code/1.54.1 Chrome/87.0.4280.141 Electron/11.3.0 Safari/537.36" version="14.2.4" etag="ZEFqEXx30AtN1hfSAxPp" type="embed">
    <diagram id="n-q2XgoTYydjIQyY_oEP" name="Page-1">
        <mxGraphModel dx="478" dy="760" grid="1" gridSize="13" guides="1" tooltips="1" connect="1" arrows="1" fold="1" page="1" pageScale="1" pageWidth="827" pageHeight="1169" math="0" shadow="0">
            <root>
                <mxCell id="0"/>
                <mxCell id="1" parent="0"/>
                <mxCell id="5" style="edgeStyle=orthogonalEdgeStyle;rounded=0;orthogonalLoop=1;jettySize=auto;html=1;fontSize=20;entryX=0.5;entryY=0;entryDx=0;entryDy=0;" edge="1" parent="1" source="2" target="4">
                    <mxGeometry relative="1" as="geometry">
                        <mxPoint x="340" y="494" as="targetPoint"/>
                    </mxGeometry>
                </mxCell>
                <mxCell id="12" style="edgeStyle=orthogonalEdgeStyle;rounded=0;orthogonalLoop=1;jettySize=auto;html=1;fontSize=20;" edge="1" parent="1" source="2">
                    <mxGeometry relative="1" as="geometry">
                        <mxPoint x="481" y="400" as="targetPoint"/>
                    </mxGeometry>
                </mxCell>
                <mxCell id="2" value="计划阶段" style="rounded=0;whiteSpace=wrap;html=1;strokeWidth=1;fontSize=20;" vertex="1" parent="1">
                    <mxGeometry x="280" y="370" width="120" height="60" as="geometry"/>
                </mxCell>
                <mxCell id="6" style="edgeStyle=orthogonalEdgeStyle;rounded=0;orthogonalLoop=1;jettySize=auto;html=1;fontSize=20;entryX=0.5;entryY=0;entryDx=0;entryDy=0;" edge="1" parent="1" source="4" target="7">
                    <mxGeometry relative="1" as="geometry">
                        <mxPoint x="340" y="642" as="targetPoint"/>
                    </mxGeometry>
                </mxCell>
                <mxCell id="14" style="edgeStyle=orthogonalEdgeStyle;rounded=0;orthogonalLoop=1;jettySize=auto;html=1;fontSize=12;fontColor=#f0f0f0;" edge="1" parent="1" source="4">
                    <mxGeometry relative="1" as="geometry">
                        <mxPoint x="481" y="555" as="targetPoint"/>
                    </mxGeometry>
                </mxCell>
                <mxCell id="4" value="开发阶段" style="rounded=0;whiteSpace=wrap;html=1;strokeWidth=1;fontSize=20;" vertex="1" parent="1">
                    <mxGeometry x="280" y="525" width="120" height="60" as="geometry"/>
                </mxCell>
                <mxCell id="9" style="edgeStyle=orthogonalEdgeStyle;rounded=0;orthogonalLoop=1;jettySize=auto;html=1;fontSize=20;entryX=0.5;entryY=0;entryDx=0;entryDy=0;" edge="1" parent="1" source="7" target="10">
                    <mxGeometry relative="1" as="geometry">
                        <mxPoint x="340" y="774" as="targetPoint"/>
                    </mxGeometry>
                </mxCell>
                <mxCell id="19" style="edgeStyle=orthogonalEdgeStyle;rounded=0;orthogonalLoop=1;jettySize=auto;html=1;fontSize=12;fontColor=#f0f0f0;" edge="1" parent="1" source="7">
                    <mxGeometry relative="1" as="geometry">
                        <mxPoint x="481" y="687" as="targetPoint"/>
                    </mxGeometry>
                </mxCell>
                <mxCell id="7" value="测试阶段" style="rounded=0;whiteSpace=wrap;html=1;strokeWidth=1;fontSize=20;" vertex="1" parent="1">
                    <mxGeometry x="280" y="657" width="120" height="60" as="geometry"/>
                </mxCell>
                <mxCell id="17" style="edgeStyle=orthogonalEdgeStyle;rounded=0;orthogonalLoop=1;jettySize=auto;html=1;fontSize=12;fontColor=#f0f0f0;" edge="1" parent="1" source="10" target="18">
                    <mxGeometry relative="1" as="geometry">
                        <mxPoint x="468" y="821" as="targetPoint"/>
                    </mxGeometry>
                </mxCell>
                <mxCell id="10" value="发布阶段" style="rounded=0;whiteSpace=wrap;html=1;strokeWidth=1;fontSize=20;" vertex="1" parent="1">
                    <mxGeometry x="280" y="791" width="120" height="60" as="geometry"/>
                </mxCell>
                <mxCell id="13" value="&lt;ol&gt;&lt;li&gt;&lt;span&gt;详细设计文档&lt;/span&gt;&lt;/li&gt;&lt;li&gt;单元测试方案文档&lt;/li&gt;&lt;li&gt;&lt;span&gt;集成测试方案文档&lt;/span&gt;&lt;/li&gt;&lt;/ol&gt;" style="rounded=0;whiteSpace=wrap;html=1;strokeWidth=1;fontSize=12;align=left;spacingLeft=0;labelBackgroundColor=none;labelPosition=center;verticalLabelPosition=middle;verticalAlign=middle;horizontal=1;" vertex="1" parent="1">
                    <mxGeometry x="481" y="354" width="169" height="88" as="geometry"/>
                </mxCell>
                <mxCell id="16" value="&lt;ol&gt;&lt;li&gt;详细设计文档（修订版）&lt;/li&gt;&lt;li&gt;单元测试方案（修订版）&lt;/li&gt;&lt;li&gt;集成测试发难（修订版）&lt;/li&gt;&lt;/ol&gt;" style="rounded=0;whiteSpace=wrap;html=1;strokeWidth=1;fontSize=12;align=left;spacingLeft=0;labelBackgroundColor=none;labelPosition=center;verticalLabelPosition=middle;verticalAlign=middle;horizontal=1;" vertex="1" parent="1">
                    <mxGeometry x="481" y="511" width="182" height="88" as="geometry"/>
                </mxCell>
                <mxCell id="18" value="&lt;ol&gt;&lt;li&gt;安装手册&lt;/li&gt;&lt;li&gt;用户手册&lt;/li&gt;&lt;li&gt;升级指导书&lt;/li&gt;&lt;/ol&gt;" style="rounded=0;whiteSpace=wrap;html=1;strokeWidth=1;fontSize=12;align=left;spacingLeft=0;labelBackgroundColor=none;labelPosition=center;verticalLabelPosition=middle;verticalAlign=middle;horizontal=1;" vertex="1" parent="1">
                    <mxGeometry x="481" y="784" width="130" height="74" as="geometry"/>
                </mxCell>
                <mxCell id="20" value="&lt;ol&gt;&lt;li&gt;单元测试报告&lt;/li&gt;&lt;li&gt;继承测试报告&lt;/li&gt;&lt;li&gt;系统测试报告&lt;/li&gt;&lt;/ol&gt;" style="rounded=0;whiteSpace=wrap;html=1;strokeWidth=1;fontSize=12;align=left;spacingLeft=0;labelBackgroundColor=none;labelPosition=center;verticalLabelPosition=middle;verticalAlign=middle;horizontal=1;" vertex="1" parent="1">
                    <mxGeometry x="481" y="643" width="143" height="79" as="geometry"/>
                </mxCell>
            </root>
        </mxGraphModel>
    </diagram>
</mxfile>